<?xml version="1.0" encoding="utf-8"?>
<!-- Generator: Adobe Illustrator 16.0.0, SVG Export Plug-In . SVG Version: 6.00 Build 0)  -->
<!DOCTYPE svg PUBLIC "-//W3C//DTD SVG 1.1//EN" "http://www.w3.org/Graphics/SVG/1.1/DTD/svg11.dtd">
<svg version="1.1" id="Layer_1" xmlns="http://www.w3.org/2000/svg" xmlns:xlink="http://www.w3.org/1999/xlink" x="0px" y="0px"
	 width="640px" height="640.5px" viewBox="0 -160.5 640 640.5" enable-background="new 0 -160.5 640 640.5" xml:space="preserve">
<filter  width="1.436214" height="1.452991" id="filter3405" x="-0.218107" y="-0.226496">
	<feGaussianBlur  stdDeviation="0.619654" id="feGaussianBlur3407"></feGaussianBlur>
</filter>
<filter  width="1.231602" height="1.235091" id="filter3301" x="-0.115801" y="-0.117545">
	<feGaussianBlur  stdDeviation="1.641958" id="feGaussianBlur3303"></feGaussianBlur>
</filter>
<g>
	<title>Layer 1</title>
	<g id="layer1">
		<g id="path3305" filter="url(#filter3301)">
			
				<radialGradient id="SVGID_1_" cx="140.7129" cy="425.6553" r="17.0365" gradientTransform="matrix(0.9419 1.2208 1.3554 -1.0458 -371.4767 401.3128)" gradientUnits="userSpaceOnUse">
				<stop  offset="0" style="stop-color:#000000"/>
				<stop  offset="1" style="stop-color:#000000;stop-opacity:0"/>
			</radialGradient>
			<path fill="url(#SVGID_1_)" d="M463.775,179.961c-19.73,79.484-101.189,127.654-181.904,107.566
				c-80.714-20.09-130.092-100.822-110.264-180.283C191.338,27.76,272.797-20.409,353.512-0.321
				C434.227,19.768,483.604,100.5,463.775,179.961z"/>
			<path fill="none" stroke="#000000" stroke-width="1.2" stroke-linecap="round" d="M463.775,179.961
				c-19.73,79.484-101.189,127.654-181.904,107.566c-80.714-20.09-130.092-100.822-110.264-180.283
				C191.338,27.76,272.797-20.409,353.512-0.321C434.227,19.768,483.604,100.5,463.775,179.961z"/>
		</g>
		<g id="path3325" filter="url(#filter3301)">
			
				<radialGradient id="SVGID_2_" cx="124.5835" cy="410.9854" r="17.0149" gradientTransform="matrix(0.4559 0.4902 0.7864 -0.7314 -30.5778 377.6421)" gradientUnits="userSpaceOnUse">
				<stop  offset="0" style="stop-color:#00A1FF"/>
				<stop  offset="1" style="stop-color:#000001"/>
			</radialGradient>
			<path fill="url(#SVGID_2_)" d="M463.775,179.961c-19.73,79.484-101.189,127.654-181.904,107.566
				c-80.714-20.09-130.092-100.822-110.264-180.283C191.338,27.76,272.797-20.409,353.512-0.321
				C434.227,19.768,483.604,100.5,463.775,179.961z"/>
			<path fill="none" stroke="#000000" stroke-width="1.2" stroke-linecap="round" d="M463.775,179.961
				c-19.73,79.484-101.189,127.654-181.904,107.566c-80.714-20.09-130.092-100.822-110.264-180.283
				C191.338,27.76,272.797-20.409,353.512-0.321C434.227,19.768,483.604,100.5,463.775,179.961z"/>
		</g>
		<g id="path3409" filter="url(#filter3301)">
			
				<radialGradient id="SVGID_3_" cx="155.3809" cy="393.2773" r="17.015" gradientTransform="matrix(-4.171368e-07 0.6336 1.1671 6.736895e-07 -116.7503 44.3321)" gradientUnits="userSpaceOnUse">
				<stop  offset="0" style="stop-color:#00A1FF"/>
				<stop  offset="1" style="stop-color:#000001"/>
			</radialGradient>
			<path fill="url(#SVGID_3_)" d="M463.775,179.961c-19.73,79.484-101.189,127.654-181.904,107.566
				c-80.714-20.09-130.092-100.822-110.264-180.283C191.338,27.76,272.797-20.409,353.512-0.321
				C434.227,19.768,483.604,100.5,463.775,179.961z"/>
			<path fill="none" stroke="#000000" stroke-width="1.2" stroke-linecap="round" d="M463.775,179.961
				c-19.73,79.484-101.189,127.654-181.904,107.566c-80.714-20.09-130.092-100.822-110.264-180.283
				C191.338,27.76,272.797-20.409,353.512-0.321C434.227,19.768,483.604,100.5,463.775,179.961z"/>
		</g>
		<path id="path3323" stroke="#000000" stroke-width="1.2" stroke-linecap="round" d="M404.85,140.606
			c-10.141,40.743-51.389,65.552-92.132,55.411c-40.743-10.14-65.551-51.39-55.411-92.132c10.141-40.743,51.39-65.552,92.133-55.411
			C390.182,58.614,414.99,99.864,404.85,140.606z"/>
		<path id="path3170" stroke="#000000" stroke-width="1.0623" d="M233.272-23.311C88.787,48.666,30.634,187.3,30.634,187.3
			c19.036-27.743,41.988-52.27,66.709-73.841C59.29,172.932,42.224,228.77,42.224,228.77l-27.167,36.056
			c3.263,9.105,37.198,24.322,48.224-8.873C175.187-80.94,426.105,2.394,519.523,47.523c0.107,0.052,0.473,0.41,0.58,0.462
			c0.92,0.983,9.312,3.878,22.984,11.646c-2.303,20.325-13.932,141.342-110.713,226.449
			c-61.486,54.068-187.263,54.207-290.44,50.088c0,0,130.221,25.781,246.5-9.162C524.5,286.117,569.445,117.633,574.264,65.272
			c3.707-1.408,6.555-3.32,6.482-3.379c-0.113-0.095,62.062-33.013,39.111-43.44c-46.559-21.15-88.203-35.985-126.877-45.35
			c-16.295-3.946-31.865-6.688-47.275-8.773c55.205-10.07,93.773-13.469,96.965-15.058c-0.176-0.072-0.188-0.395-0.58-0.462
			c-5.553-0.953-41.506-10.736-97.926-13.782C359.537-69.542,289.811-51.475,233.272-23.311L233.272-23.311z"/>
		<g id="path3335" filter="url(#filter3405)">
			
				<ellipse transform="matrix(0.9704 0.2415 -0.2415 0.9704 40.7003 -81.7555)" fill="#FFFFFF" cx="353.853" cy="125.149" rx="36.656" ry="35.299"/>
		</g>
	</g>
</g>
</svg>
